<mxfile host="app.diagrams.net" modified="2021-10-18T22:49:37.256Z" agent="5.0 (Windows NT 10.0; Win64; x64) AppleWebKit/537.36 (KHTML, like Gecko) Chrome/94.0.4606.81 Safari/537.36" etag="3Xsx3at_Jdj6BnD5oj3F" version="15.5.5" type="github" pages="2">
  <diagram name="Page-1" id="12e1b939-464a-85fe-373e-61e167be1490">
    <mxGraphModel dx="2130" dy="927" grid="1" gridSize="10" guides="1" tooltips="1" connect="1" arrows="1" fold="1" page="1" pageScale="1.5" pageWidth="1169" pageHeight="826" background="none" math="0" shadow="0">
      <root>
        <mxCell id="0" />
        <mxCell id="1" parent="0" />
        <mxCell id="60da8b9f42644d3a-2" value="" style="whiteSpace=wrap;html=1;rounded=1;shadow=0;strokeWidth=8;fontSize=20;align=center;fillColor=#FED217;strokeColor=#FFFFFF;" parent="1" vertex="1">
          <mxGeometry x="316" y="405" width="280" height="430" as="geometry" />
        </mxCell>
        <mxCell id="60da8b9f42644d3a-3" value="Projects" style="text;html=1;strokeColor=none;fillColor=none;align=center;verticalAlign=middle;whiteSpace=wrap;rounded=0;shadow=0;fontSize=27;fontColor=#FFFFFF;fontStyle=1" parent="1" vertex="1">
          <mxGeometry x="316" y="425" width="280" height="60" as="geometry" />
        </mxCell>
        <mxCell id="60da8b9f42644d3a-4" value="Operational and Strategy projects to be identified by strategy" style="text;html=1;strokeColor=none;fillColor=none;align=center;verticalAlign=middle;whiteSpace=wrap;rounded=0;shadow=0;fontSize=14;fontColor=#FFFFFF;" parent="1" vertex="1">
          <mxGeometry x="316" y="725" width="280" height="90" as="geometry" />
        </mxCell>
        <mxCell id="60da8b9f42644d3a-6" value="" style="line;strokeWidth=2;html=1;rounded=0;shadow=0;fontSize=27;align=center;fillColor=none;strokeColor=#FFFFFF;" parent="1" vertex="1">
          <mxGeometry x="336" y="485" width="240" height="10" as="geometry" />
        </mxCell>
        <mxCell id="60da8b9f42644d3a-7" value="" style="line;strokeWidth=2;html=1;rounded=0;shadow=0;fontSize=27;align=center;fillColor=none;strokeColor=#FFFFFF;" parent="1" vertex="1">
          <mxGeometry x="336" y="705" width="240" height="10" as="geometry" />
        </mxCell>
        <mxCell id="60da8b9f42644d3a-8" value="Strategy" style="ellipse;whiteSpace=wrap;html=1;rounded=0;shadow=0;strokeWidth=6;fontSize=14;align=center;fillColor=#BFB4A9;strokeColor=#FFFFFF;fontColor=#FFFFFF;" parent="1" vertex="1">
          <mxGeometry x="259" y="545" width="115" height="115" as="geometry" />
        </mxCell>
        <mxCell id="60da8b9f42644d3a-9" value="" style="html=1;shadow=0;dashed=0;align=center;verticalAlign=middle;shape=mxgraph.arrows2.stylisedArrow;dy=0.6;dx=40;notch=15;feather=0.4;rounded=0;strokeWidth=1;fontSize=27;strokeColor=none;fillColor=#fff2cc;" parent="1" vertex="1">
          <mxGeometry x="406" y="573" width="100" height="60" as="geometry" />
        </mxCell>
        <mxCell id="60da8b9f42644d3a-17" value="" style="whiteSpace=wrap;html=1;rounded=1;shadow=0;strokeWidth=8;fontSize=20;align=center;fillColor=#FFC001;strokeColor=#FFFFFF;" parent="1" vertex="1">
          <mxGeometry x="596" y="405" width="280" height="430" as="geometry" />
        </mxCell>
        <mxCell id="60da8b9f42644d3a-18" value="KPI" style="text;html=1;strokeColor=none;fillColor=none;align=center;verticalAlign=middle;whiteSpace=wrap;rounded=0;shadow=0;fontSize=27;fontColor=#FFFFFF;fontStyle=1" parent="1" vertex="1">
          <mxGeometry x="596" y="425" width="280" height="60" as="geometry" />
        </mxCell>
        <mxCell id="60da8b9f42644d3a-19" value="Each projects&amp;nbsp; need to be linked to one of employee&#39;s/department/sector&lt;br&gt;KPI or objective" style="text;html=1;strokeColor=none;fillColor=none;align=center;verticalAlign=middle;whiteSpace=wrap;rounded=0;shadow=0;fontSize=14;fontColor=#FFFFFF;" parent="1" vertex="1">
          <mxGeometry x="596" y="725" width="280" height="90" as="geometry" />
        </mxCell>
        <mxCell id="60da8b9f42644d3a-20" value="" style="line;strokeWidth=2;html=1;rounded=0;shadow=0;fontSize=27;align=center;fillColor=none;strokeColor=#FFFFFF;" parent="1" vertex="1">
          <mxGeometry x="616" y="485" width="240" height="10" as="geometry" />
        </mxCell>
        <mxCell id="60da8b9f42644d3a-21" value="" style="line;strokeWidth=2;html=1;rounded=0;shadow=0;fontSize=27;align=center;fillColor=none;strokeColor=#FFFFFF;" parent="1" vertex="1">
          <mxGeometry x="616" y="705" width="240" height="10" as="geometry" />
        </mxCell>
        <mxCell id="60da8b9f42644d3a-22" value="Employees" style="ellipse;whiteSpace=wrap;html=1;rounded=0;shadow=0;strokeWidth=6;fontSize=14;align=center;fillColor=#397DAA;strokeColor=#FFFFFF;fontColor=#FFFFFF;" parent="1" vertex="1">
          <mxGeometry x="539" y="545" width="115" height="115" as="geometry" />
        </mxCell>
        <mxCell id="60da8b9f42644d3a-23" value="" style="html=1;shadow=0;dashed=0;align=center;verticalAlign=middle;shape=mxgraph.arrows2.stylisedArrow;dy=0.6;dx=40;notch=15;feather=0.4;rounded=0;strokeWidth=1;fontSize=27;strokeColor=none;fillColor=#fff2cc;" parent="1" vertex="1">
          <mxGeometry x="686" y="573" width="100" height="60" as="geometry" />
        </mxCell>
        <mxCell id="60da8b9f42644d3a-24" value="" style="whiteSpace=wrap;html=1;rounded=1;shadow=0;strokeWidth=8;fontSize=20;align=center;fillColor=#FFB001;strokeColor=#FFFFFF;" parent="1" vertex="1">
          <mxGeometry x="876" y="405" width="280" height="430" as="geometry" />
        </mxCell>
        <mxCell id="60da8b9f42644d3a-25" value="Tasks" style="text;html=1;strokeColor=none;fillColor=none;align=center;verticalAlign=middle;whiteSpace=wrap;rounded=0;shadow=0;fontSize=27;fontColor=#FFFFFF;fontStyle=1" parent="1" vertex="1">
          <mxGeometry x="876" y="430" width="280" height="55" as="geometry" />
        </mxCell>
        <mxCell id="60da8b9f42644d3a-26" value="Email&lt;div&gt;Signals&lt;/div&gt;&lt;div&gt;Workflows&lt;/div&gt;" style="text;html=1;strokeColor=none;fillColor=none;align=center;verticalAlign=middle;whiteSpace=wrap;rounded=0;shadow=0;fontSize=14;fontColor=#FFFFFF;" parent="1" vertex="1">
          <mxGeometry x="876" y="725" width="280" height="90" as="geometry" />
        </mxCell>
        <mxCell id="60da8b9f42644d3a-27" value="" style="line;strokeWidth=2;html=1;rounded=0;shadow=0;fontSize=27;align=center;fillColor=none;strokeColor=#FFFFFF;" parent="1" vertex="1">
          <mxGeometry x="896" y="485" width="240" height="10" as="geometry" />
        </mxCell>
        <mxCell id="60da8b9f42644d3a-28" value="" style="line;strokeWidth=2;html=1;rounded=0;shadow=0;fontSize=27;align=center;fillColor=none;strokeColor=#FFFFFF;" parent="1" vertex="1">
          <mxGeometry x="896" y="705" width="240" height="10" as="geometry" />
        </mxCell>
        <mxCell id="60da8b9f42644d3a-29" value="Task" style="ellipse;whiteSpace=wrap;html=1;rounded=0;shadow=0;strokeWidth=6;fontSize=14;align=center;fillColor=#EF9353;strokeColor=#FFFFFF;fontColor=#FFFFFF;" parent="1" vertex="1">
          <mxGeometry x="819" y="545" width="115" height="115" as="geometry" />
        </mxCell>
        <mxCell id="60da8b9f42644d3a-30" value="" style="html=1;shadow=0;dashed=0;align=center;verticalAlign=middle;shape=mxgraph.arrows2.stylisedArrow;dy=0.6;dx=40;notch=15;feather=0.4;rounded=0;strokeWidth=1;fontSize=27;strokeColor=none;fillColor=#fff2cc;" parent="1" vertex="1">
          <mxGeometry x="966" y="573" width="100" height="60" as="geometry" />
        </mxCell>
        <mxCell id="60da8b9f42644d3a-31" value="" style="whiteSpace=wrap;html=1;rounded=1;shadow=0;strokeWidth=8;fontSize=20;align=center;fillColor=#FE9900;strokeColor=#FFFFFF;" parent="1" vertex="1">
          <mxGeometry x="1156" y="405" width="280" height="430" as="geometry" />
        </mxCell>
        <mxCell id="60da8b9f42644d3a-32" value="DELIGHT" style="text;html=1;strokeColor=none;fillColor=none;align=center;verticalAlign=middle;whiteSpace=wrap;rounded=0;shadow=0;fontSize=27;fontColor=#FFFFFF;fontStyle=1" parent="1" vertex="1">
          <mxGeometry x="1156" y="425" width="280" height="60" as="geometry" />
        </mxCell>
        <mxCell id="60da8b9f42644d3a-33" value="Events&lt;div&gt;Social Inbox&lt;/div&gt;&lt;div&gt;Smart Content&lt;/div&gt;" style="text;html=1;strokeColor=none;fillColor=none;align=center;verticalAlign=middle;whiteSpace=wrap;rounded=0;shadow=0;fontSize=14;fontColor=#FFFFFF;" parent="1" vertex="1">
          <mxGeometry x="1156" y="725" width="280" height="90" as="geometry" />
        </mxCell>
        <mxCell id="60da8b9f42644d3a-34" value="" style="line;strokeWidth=2;html=1;rounded=0;shadow=0;fontSize=27;align=center;fillColor=none;strokeColor=#FFFFFF;" parent="1" vertex="1">
          <mxGeometry x="1176" y="485" width="240" height="10" as="geometry" />
        </mxCell>
        <mxCell id="60da8b9f42644d3a-35" value="" style="line;strokeWidth=2;html=1;rounded=0;shadow=0;fontSize=27;align=center;fillColor=none;strokeColor=#FFFFFF;" parent="1" vertex="1">
          <mxGeometry x="1176" y="705" width="240" height="10" as="geometry" />
        </mxCell>
        <mxCell id="60da8b9f42644d3a-36" value="CUSTOMERS" style="ellipse;whiteSpace=wrap;html=1;rounded=0;shadow=0;strokeWidth=6;fontSize=14;align=center;fillColor=#68B85C;strokeColor=#FFFFFF;fontColor=#FFFFFF;" parent="1" vertex="1">
          <mxGeometry x="1099" y="545" width="115" height="115" as="geometry" />
        </mxCell>
        <mxCell id="60da8b9f42644d3a-37" value="" style="html=1;shadow=0;dashed=0;align=center;verticalAlign=middle;shape=mxgraph.arrows2.stylisedArrow;dy=0.6;dx=40;notch=15;feather=0.4;rounded=0;strokeWidth=1;fontSize=27;strokeColor=none;fillColor=#fff2cc;" parent="1" vertex="1">
          <mxGeometry x="1246" y="573" width="100" height="60" as="geometry" />
        </mxCell>
        <mxCell id="60da8b9f42644d3a-38" value="PROMOTERS" style="ellipse;whiteSpace=wrap;html=1;rounded=0;shadow=0;strokeWidth=6;fontSize=14;align=center;fillColor=#BF639A;strokeColor=#FFFFFF;fontColor=#FFFFFF;" parent="1" vertex="1">
          <mxGeometry x="1379" y="545" width="115" height="115" as="geometry" />
        </mxCell>
      </root>
    </mxGraphModel>
  </diagram>
  <diagram id="xr-y4CsKjhAnOTwVFUvI" name="Page-2">
    <mxGraphModel dx="1278" dy="556" grid="1" gridSize="10" guides="1" tooltips="1" connect="1" arrows="1" fold="1" page="1" pageScale="1" pageWidth="850" pageHeight="1100" math="0" shadow="0">
      <root>
        <mxCell id="pqnNVlSSgXgBZ6chGjlM-0" />
        <mxCell id="pqnNVlSSgXgBZ6chGjlM-1" parent="pqnNVlSSgXgBZ6chGjlM-0" />
        <mxCell id="pqnNVlSSgXgBZ6chGjlM-5" value="" style="edgeStyle=orthogonalEdgeStyle;rounded=0;orthogonalLoop=1;jettySize=auto;html=1;" edge="1" parent="pqnNVlSSgXgBZ6chGjlM-1" source="pqnNVlSSgXgBZ6chGjlM-3" target="pqnNVlSSgXgBZ6chGjlM-4">
          <mxGeometry relative="1" as="geometry" />
        </mxCell>
        <mxCell id="pqnNVlSSgXgBZ6chGjlM-3" value="" style="sketch=0;pointerEvents=1;shadow=0;dashed=0;html=1;strokeColor=none;fillColor=#505050;labelPosition=center;verticalLabelPosition=bottom;verticalAlign=top;outlineConnect=0;align=center;shape=mxgraph.office.users.distribution_group;" vertex="1" parent="pqnNVlSSgXgBZ6chGjlM-1">
          <mxGeometry x="120" y="120" width="58" height="59" as="geometry" />
        </mxCell>
        <mxCell id="pqnNVlSSgXgBZ6chGjlM-8" value="" style="edgeStyle=orthogonalEdgeStyle;rounded=0;orthogonalLoop=1;jettySize=auto;html=1;" edge="1" parent="pqnNVlSSgXgBZ6chGjlM-1" source="pqnNVlSSgXgBZ6chGjlM-4" target="pqnNVlSSgXgBZ6chGjlM-7">
          <mxGeometry relative="1" as="geometry" />
        </mxCell>
        <mxCell id="pqnNVlSSgXgBZ6chGjlM-4" value="Enters Date in &lt;br&gt;CMS for &lt;br&gt;Centre of Gravity" style="shape=parallelogram;perimeter=parallelogramPerimeter;whiteSpace=wrap;html=1;fixedSize=1;shadow=0;dashed=0;verticalAlign=top;strokeColor=#000;fillColor=#FFFFFF;sketch=0;" vertex="1" parent="pqnNVlSSgXgBZ6chGjlM-1">
          <mxGeometry x="260" y="114.25" width="143" height="70.5" as="geometry" />
        </mxCell>
        <mxCell id="pqnNVlSSgXgBZ6chGjlM-11" value="" style="edgeStyle=orthogonalEdgeStyle;rounded=0;orthogonalLoop=1;jettySize=auto;html=1;" edge="1" parent="pqnNVlSSgXgBZ6chGjlM-1" source="pqnNVlSSgXgBZ6chGjlM-7" target="pqnNVlSSgXgBZ6chGjlM-10">
          <mxGeometry relative="1" as="geometry" />
        </mxCell>
        <mxCell id="pqnNVlSSgXgBZ6chGjlM-7" value="" style="sketch=0;pointerEvents=1;shadow=0;dashed=0;html=1;strokeColor=none;fillColor=#505050;labelPosition=center;verticalLabelPosition=bottom;verticalAlign=top;outlineConnect=0;align=center;shape=mxgraph.office.communications.exchange_active_sync;fillColor=#2072B8;" vertex="1" parent="pqnNVlSSgXgBZ6chGjlM-1">
          <mxGeometry x="470" y="125" width="49" height="49" as="geometry" />
        </mxCell>
        <mxCell id="pqnNVlSSgXgBZ6chGjlM-10" value="" style="sketch=0;pointerEvents=1;shadow=0;dashed=0;html=1;strokeColor=none;fillColor=#505050;labelPosition=center;verticalLabelPosition=bottom;verticalAlign=top;outlineConnect=0;align=center;shape=mxgraph.office.concepts.application_web;" vertex="1" parent="pqnNVlSSgXgBZ6chGjlM-1">
          <mxGeometry x="590" y="125" width="56" height="49" as="geometry" />
        </mxCell>
        <mxCell id="pqnNVlSSgXgBZ6chGjlM-12" value="Employee" style="text;html=1;strokeColor=none;fillColor=none;align=center;verticalAlign=middle;whiteSpace=wrap;rounded=0;shadow=0;" vertex="1" parent="pqnNVlSSgXgBZ6chGjlM-1">
          <mxGeometry x="120" y="184.75" width="60" height="30" as="geometry" />
        </mxCell>
        <mxCell id="pqnNVlSSgXgBZ6chGjlM-13" value="process Sync Data" style="text;html=1;strokeColor=none;fillColor=none;align=center;verticalAlign=middle;whiteSpace=wrap;rounded=0;shadow=0;" vertex="1" parent="pqnNVlSSgXgBZ6chGjlM-1">
          <mxGeometry x="450" y="184.75" width="80" height="30" as="geometry" />
        </mxCell>
        <mxCell id="pqnNVlSSgXgBZ6chGjlM-14" value="Dashboard/&lt;br&gt;Application" style="text;html=1;strokeColor=none;fillColor=none;align=center;verticalAlign=middle;whiteSpace=wrap;rounded=0;shadow=0;" vertex="1" parent="pqnNVlSSgXgBZ6chGjlM-1">
          <mxGeometry x="570" y="179" width="100" height="30" as="geometry" />
        </mxCell>
      </root>
    </mxGraphModel>
  </diagram>
</mxfile>
